<svg width="300" height="169" viewBox="0 0 300 169" fill="none" xmlns="http://www.w3.org/2000/svg">
<path d="M2.74696 139.59C1.8313 139.647 0 138.766 0 134.782C0 130.839 0.53847 123.449 0.762464 120.374C0.821288 119.567 0.858424 119.057 0.858424 118.986C0.858424 118.643 0.858424 114.865 4.12043 114.865L8.64425 114.454C8.73067 114.446 8.81544 114.432 8.89801 114.412C9.34091 114.303 9.72074 114.022 9.95547 113.636C10.0271 113.518 10.0852 113.391 10.1274 113.255L14.7649 98.3823C15.051 97.6383 16.0697 96.1159 17.8552 95.9786C18.2151 95.9509 18.5392 95.932 18.8292 95.9201C18.8938 95.9174 18.9583 95.9117 19.0226 95.9032C19.8914 95.7883 20.7121 95.1526 20.9757 94.3269C21.0046 94.2363 21.0268 94.1433 21.0416 94.0485C21.613 90.3961 22.7723 85.1656 24.3792 83.7881C26.3171 82.1269 27.4738 81.9167 28.5691 81.7176C28.8323 81.6698 29.092 81.6226 29.3581 81.556C30.4569 81.2813 44.123 79.2667 50.8187 78.2938L84.3935 74.9528C84.9754 74.8949 85.4917 74.5371 85.7572 74.0161C95.1683 55.5525 99.6029 47.2284 101.981 45.328C104.872 41.9003 118.922 41.7715 137.19 41.6041C138.419 41.5928 139.668 41.5814 140.933 41.5687C141.889 41.5592 142.67 42.3308 142.67 43.2864V69.5373C142.67 70.4855 143.439 71.2542 144.387 71.2542L271.949 71.2542C272.897 71.2542 273.665 72.0229 273.665 72.9712V73.1429V138.044L273.28 139.105C273.081 139.653 273.044 140.268 272.758 140.776C272.463 141.298 271.904 141.65 271.262 141.65H257.714C256.904 141.65 256.209 141.083 256.01 140.298L256.006 140.284C256.006 140.283 256.006 140.283 256.006 140.282C248.892 112.193 213.652 112.12 206.347 140.293L206.343 140.308C206.141 141.088 205.448 141.65 204.642 141.65H75.8813C75.249 141.65 74.6671 141.303 74.3722 140.743C73.4971 139.084 72.6599 137.416 71.8551 135.756C71.5666 135.162 70.965 134.782 70.3041 134.782H65.7207C65.3224 134.782 64.959 134.547 64.7809 134.191C55.3229 115.266 29.6524 113.259 18.8344 134.203C18.6544 134.551 18.2937 134.782 17.9017 134.782H15.9614C15.3925 134.782 14.9313 135.243 14.9313 135.812V138.065C14.8398 138.934 14.105 139.59 13.2315 139.59H2.74696Z" fill="#011D14"/>
<path d="M273.665 86.2421V88.6459H83.4388L25.9244 90.5345C25.9725 86.31 27.7944 85.0937 30.0448 84.5251L85.1556 79.0308L83.4388 85.5553H144.043V86.2421H273.665Z" fill="#30443F"/>
<path d="M25.2377 94.3118L21.4606 94.9986C21.9556 91.2238 22.4586 89.4516 23.6925 86.2421L25.7527 86.0704C27.5376 86.1046 27.8431 86.576 27.2979 88.1308L25.2377 94.3118Z" fill="#98AEAA"/>
<path d="M271.949 141.872H149.366V104.785H273.665V140.155C273.665 141.103 272.897 141.872 271.949 141.872Z" fill="#283E37"/>
<path d="M259.587 141.872C259.587 138.264 258.877 134.692 257.496 131.359C256.116 128.026 254.092 124.998 251.542 122.447C248.991 119.896 245.963 117.872 242.63 116.492C239.297 115.111 235.725 114.4 232.118 114.4C228.51 114.4 224.938 115.111 221.606 116.492C218.273 117.872 215.245 119.896 212.694 122.447C210.143 124.998 208.12 128.026 206.739 131.359C205.359 134.692 204.648 138.264 204.648 141.872H259.587Z" fill="#011D14"/>
<path d="M143.185 71.4762H149.366V141.872H143.185V71.4762Z" fill="#163229"/>
<path d="M154.516 76.5768C154.516 76.0079 154.977 75.5466 155.546 75.5466H267.828C268.397 75.5466 268.858 76.0079 268.858 76.5768V81.7277C268.858 82.2967 268.397 82.7579 267.828 82.7579H155.546C154.977 82.7579 154.516 82.2967 154.516 81.7277V76.5768Z" fill="#BD6800"/>
<path d="M154.516 94.4333C154.516 93.8643 154.977 93.4031 155.546 93.4031H267.828C268.397 93.4031 268.858 93.8643 268.858 94.4333V99.5842C268.858 100.153 268.397 100.614 267.828 100.614H155.546C154.977 100.614 154.516 100.153 154.516 99.5842V94.4333Z" fill="#BD6800"/>
<path d="M154.516 76.5768C154.516 76.0079 154.977 75.5466 155.546 75.5466H156.233C156.802 75.5466 157.263 76.0079 157.263 76.5768V99.5842C157.263 100.153 156.802 100.614 156.233 100.614H155.546C154.977 100.614 154.516 100.153 154.516 99.5842V76.5768Z" fill="#30443F"/>
<path d="M210.142 76.5768C210.142 76.0079 210.603 75.5466 211.172 75.5466H212.202C212.771 75.5466 213.232 76.0079 213.232 76.5768V99.5842C213.232 100.153 212.771 100.614 212.202 100.614H211.172C210.603 100.614 210.142 100.153 210.142 99.5842V76.5768Z" fill="#30443F"/>
<path d="M182.329 76.5768C182.329 76.0079 182.79 75.5466 183.359 75.5466H184.046C184.615 75.5466 185.076 76.0079 185.076 76.5768V99.5842C185.076 100.153 184.615 100.614 184.046 100.614H183.359C182.79 100.614 182.329 100.153 182.329 99.5842V76.5768Z" fill="#30443F"/>
<path d="M238.298 76.5768C238.298 76.0079 238.76 75.5466 239.328 75.5466H240.015C240.584 75.5466 241.045 76.0079 241.045 76.5768V99.5842C241.045 100.153 240.584 100.614 240.015 100.614H239.328C238.76 100.614 238.298 100.153 238.298 99.5842V76.5768Z" fill="#30443F"/>
<path d="M266.111 76.5768C266.111 76.0079 266.573 75.5466 267.141 75.5466H267.828C268.397 75.5466 268.858 76.0079 268.858 76.5768V99.5842C268.858 100.153 268.397 100.614 267.828 100.614H267.141C266.573 100.614 266.111 100.153 266.111 99.5842V76.5768Z" fill="#30443F"/>
<path d="M256.84 144.104C256.84 157.854 245.695 169 231.946 169C218.197 169 207.052 157.854 207.052 144.104C207.052 130.354 218.197 119.208 231.946 119.208C245.695 119.208 256.84 130.354 256.84 144.104Z" fill="black"/>
<path d="M255.123 143.589C255.123 156.864 244.362 167.626 231.088 167.626C217.813 167.626 207.052 156.864 207.052 143.589C207.052 130.313 217.813 119.551 231.088 119.551C244.362 119.551 255.123 130.313 255.123 143.589Z" fill="#383E4D"/>
<path d="M251.346 144.104C251.346 154.819 242.661 163.506 231.946 163.506C221.232 163.506 212.546 154.819 212.546 144.104C212.546 133.389 221.232 124.702 231.946 124.702C242.661 124.702 251.346 133.389 251.346 144.104ZM216.97 144.104C216.97 152.376 223.675 159.082 231.946 159.082C240.217 159.082 246.923 152.376 246.923 144.104C246.923 135.832 240.217 129.126 231.946 129.126C223.675 129.126 216.97 135.832 216.97 144.104Z" fill="#4E5768"/>
<path d="M246.883 144.104C246.883 152.354 240.195 159.042 231.946 159.042C223.697 159.042 217.009 152.354 217.009 144.104C217.009 135.854 223.697 129.166 231.946 129.166C240.195 129.166 246.883 135.854 246.883 144.104Z" fill="#7A8B9F"/>
<path d="M221.645 147.366C223.018 151.659 227.997 150.972 228.684 147.366C229.027 140.67 230.74 140.804 234.865 138.438C239.192 135.722 237.783 133.287 233.319 133.287C231.493 133.266 230.195 133.292 229.371 133.459C224.049 134.832 219.585 141.357 221.645 147.366Z" fill="#97A4B5"/>
<path d="M143.357 135.691V141.872H76.441C75.7853 141.872 75.1847 141.495 74.9003 140.905C68.8876 128.416 67.3902 121.453 58.3728 108.219C57.6835 107.333 57.2987 106.867 56.656 106.674L28.4997 106.502H23.0058C20.5264 106.321 19.8984 108.652 18.8853 111.825C16.5086 119.284 16.0347 124.31 15.6233 137.236V138.094C15.6233 139.043 14.8546 139.811 13.9065 139.811H4.63549C2.47797 139.967 0.845326 139.495 0.686739 134.661L1.54516 119.38C1.60057 116.692 2.49843 115.329 4.97886 115.087L8.06918 114.744C10.0905 114.821 10.6644 114.167 11.1595 112.34L14.9366 100.321C15.9904 95.58 18.5012 95.9787 25.7527 95.5136C33.0042 95.0486 59.918 96.0287 59.918 96.0287C69.9004 95.7512 73.4202 114.272 83.4388 135.691H143.357Z" fill="#283E37"/>
<path d="M16.8251 100.321L19.2287 98.6043H60.7764L62.6649 100.321H16.8251Z" fill="#446C63"/>
<path d="M83.0954 137.236L77.9449 139.125H143.357V137.236H83.0954Z" fill="#446C63"/>
<path d="M20.4938 107.516C17.3216 114.832 16.4174 121.323 15.7254 133.189C15.6681 134.173 16.4513 135.004 17.4362 135.004H69.8098C71.052 135.004 71.8794 133.718 71.3705 132.584C63.939 116.035 59.9484 109.146 57.4153 106.994C57.1528 106.771 56.8152 106.673 56.4708 106.672L22.0541 106.508C21.3793 106.504 20.7623 106.897 20.4938 107.516Z" fill="#011D14"/>
<path d="M67.3004 144.104C67.3004 157.854 56.1549 169 42.4061 169C28.6574 169 17.5118 157.854 17.5118 144.104C17.5118 130.354 28.6574 119.208 42.4061 119.208C56.1549 119.208 67.3004 130.354 67.3004 144.104Z" fill="black"/>
<path d="M65.5836 143.589C65.5836 156.864 54.8223 167.626 41.5477 167.626C28.2731 167.626 17.5118 156.864 17.5118 143.589C17.5118 130.313 28.2731 119.551 41.5477 119.551C54.8223 119.551 65.5836 130.313 65.5836 143.589Z" fill="#383E4D"/>
<path d="M61.8065 144.104C61.8065 154.819 53.1207 163.506 42.4061 163.506C31.6916 163.506 23.0058 154.819 23.0058 144.104C23.0058 133.389 31.6916 124.702 42.4061 124.702C53.1207 124.702 61.8065 133.389 61.8065 144.104ZM27.4296 144.104C27.4296 152.376 34.1348 159.082 42.4061 159.082C50.6774 159.082 57.3827 152.376 57.3827 144.104C57.3827 135.832 50.6774 129.126 42.4061 129.126C34.1348 129.126 27.4296 135.832 27.4296 144.104Z" fill="#4E5768"/>
<path d="M57.3427 144.104C57.3427 152.354 50.6554 159.042 42.4061 159.042C34.1569 159.042 27.4696 152.354 27.4696 144.104C27.4696 135.854 34.1569 129.166 42.4061 129.166C50.6554 129.166 57.3427 135.854 57.3427 144.104Z" fill="#7A8B9F"/>
<path d="M32.105 147.366C33.4785 151.659 38.4573 150.972 39.144 147.366C39.4874 140.67 41.2005 140.804 45.3247 138.438C49.6523 135.722 48.2434 133.287 43.7795 133.287C41.9532 133.266 40.6549 133.292 39.8308 133.459C34.5086 134.832 30.0448 141.357 32.105 147.366Z" fill="#97A4B5"/>
<path d="M137.455 48.8329L107.991 49.6469C107.465 49.6614 106.994 49.9751 106.777 50.4546L92.7097 81.6063H134.601L136.318 79.0308L138.159 49.5623C138.184 49.1594 137.858 48.8218 137.455 48.8329Z" fill="#55736C"/>
<path d="M136.384 49.1662L108.001 49.6556C107.47 49.6648 106.992 49.9795 106.773 50.4637L92.7097 81.6063H95.1133L108.752 52.3072C108.916 51.954 109.266 51.7237 109.655 51.7122L137.004 50.903L137.09 49.8728L137.078 49.7713C137.036 49.4216 136.737 49.1602 136.384 49.1662Z" fill="#000102"/>
<path d="M95.6284 79.7176L108.748 52.1312C108.915 51.7804 109.265 51.5533 109.653 51.5438L137.004 50.8725L134.944 76.7988L133.056 78.8591L95.6284 79.7176Z" fill="#394458"/>
<path d="M136.489 56.5385L110.908 79.3742L118.806 79.2025L136.146 61.346L136.489 56.5385Z" fill="#878787" fill-opacity="0.5"/>
<path d="M117.947 49.499L122.583 49.3273L95.9718 81.6063H92.7097L96.4868 73.3648L117.947 49.499Z" fill="#878787" fill-opacity="0.5"/>
<path d="M97.1736 80.5761C94.564 82.7738 93.1104 82.0641 92.7098 81.4346C91.4736 79.5116 93.1104 77.6572 94.0832 76.9705L101.525 72.8358C101.705 72.7359 101.83 72.5607 101.867 72.3583L102.401 69.4247C102.46 69.096 102.676 68.8167 102.978 68.6755L104.599 67.9193C104.822 67.815 105.08 67.9733 105.087 68.2199L105.393 78.1512C105.405 78.5386 105.094 78.8591 104.706 78.8591H104.008C103.609 78.8591 103.246 78.6287 103.076 78.2676L102.213 76.4328C102.105 76.2043 101.794 76.1634 101.626 76.3513C100.877 77.1856 99.3468 78.7459 97.1736 80.5761Z" fill="#011D14"/>
<path d="M154.516 71.4761H194.69V67.5191C194.69 63.797 191.726 60.7523 188.005 60.6536L187.136 60.6306L192.015 47.9536L277.336 18.2501C281.626 22.1375 288.468 21.8728 291.856 17.2199L291.692 84.8685H286.37L288.087 94.3118H290.491V97.7457H293.237C297.528 98.9007 297.463 103.169 296.328 104.442C295.022 105.905 292.4 106.383 289.975 105.644C287.918 105.016 288.422 102.332 288.774 100.665C284.004 104.39 287.544 111.536 294.783 109.593C301.618 107.598 301.859 99.5399 294.783 96.0287V94.3118H298.216L299.59 84.8685H293.581V15.3312C298.363 1.21758 282.836 -4.7491 275.554 4.3018L201.675 22.8548L200.981 24.6592L274.867 5.85647C274.027 7.35951 273.872 8.26731 273.801 10.4343L198.161 31.9858L200.981 24.6592L201.675 22.8548C201.707 22.7738 201.674 22.6822 201.599 22.6388L197.979 20.5473C195.723 19.2435 192.846 19.8633 191.326 21.9805L163.444 60.8309H161.384C157.591 60.8309 154.516 63.9058 154.516 67.6988V71.4761Z" fill="#525453"/>
<path d="M194.69 38.682L198.124 31.9859L273.837 10.3521L274.009 13.2709L194.69 38.682Z" fill="#666867"/>
<path d="M167.908 60.8309L163.444 60.8309L190.398 23.2293L167.908 60.8309Z" fill="#656766"/>
<path d="M198.811 25.4614C198.811 27.3579 197.274 28.8953 195.377 28.8953C193.481 28.8953 191.944 27.3579 191.944 25.4614C191.944 23.5649 193.481 22.0274 195.377 22.0274C197.274 22.0274 198.811 23.5649 198.811 25.4614Z" fill="#163229"/>
<path d="M290.147 10.5238C290.147 13.8426 287.457 16.5331 284.138 16.5331C280.82 16.5331 278.129 13.8426 278.129 10.5238C278.129 7.20486 280.82 4.51436 284.138 4.51436C287.457 4.51436 290.147 7.20486 290.147 10.5238Z" fill="#163229"/>
<path d="M93.0531 95.5137C93.0531 94.7551 93.668 94.1402 94.4266 94.1402H132.884C133.643 94.1402 134.257 94.7551 134.257 95.5137V101.351C134.257 102.11 133.643 102.725 132.884 102.725H94.4266C93.668 102.725 93.0531 102.11 93.0531 101.351V95.5137Z" fill="#BD6800"/>
<path d="M93.0531 95.4635C93.0531 94.7049 93.668 94.0899 94.4266 94.0899H132.884C133.643 94.0899 134.257 94.7049 134.257 95.4635V126.369C134.257 127.128 133.643 127.743 132.884 127.743H94.4266C93.668 127.743 93.0531 127.128 93.0531 126.369V95.4635Z" fill="#BD6800"/>
<path d="M99.2338 114.35V102.675C99.2338 100.778 100.771 99.2408 102.667 99.2408H104.741C106.638 99.2408 108.175 100.778 108.175 102.675V110.86C108.175 112.756 109.712 114.294 111.609 114.294H115.359C117.255 114.294 118.792 112.756 118.792 110.86V102.675C118.792 100.778 120.33 99.2408 122.226 99.2408H124.3C126.196 99.2408 127.733 100.778 127.733 102.675V114.294C127.733 119.035 123.89 122.935 119.149 122.935H107.818C103.077 122.935 99.2338 119.091 99.2338 114.35Z" fill="#913100"/>
</svg>
