<svg width="63" height="63" viewBox="0 0 63 63" fill="none" xmlns="http://www.w3.org/2000/svg">
<g id="puntero">
    <path d="M19.6557 24.3721L53.6319 29.5178L41.9332 35.2968L53.3686 42.5306C54.8499 43.4675 55.4105 45.2487 54.6147 46.4863C54.2849 46.9996 53.7723 47.3421 53.1796 47.501C52.3407 47.7257 51.3412 47.5822 50.473 47.0334L39.0373 39.7982L38.6834 52.7561L19.6557 24.3721ZM18.8323 21.2965C18.0726 21.5001 17.3968 21.9784 16.9561 22.6642C16.2703 23.7303 16.2817 25.0956 16.985 26.145L36.0127 54.5293C36.7741 55.6654 38.1816 56.1871 39.5075 55.8318C39.528 55.8264 39.5484 55.8205 39.5687 55.8147C40.9124 55.4262 41.8516 54.2189 41.889 52.8305L42.0888 45.5123L48.7431 49.7227C50.342 50.7333 52.2588 51.0443 54.0038 50.5767C55.3911 50.205 56.5674 49.3581 57.316 48.1924C58.2071 46.8072 58.4224 45.0721 57.9061 43.4339C57.4455 41.9713 56.4483 40.6956 55.0974 39.8416L48.445 35.6329L55.0507 32.3693C56.3048 31.7499 57.0131 30.3966 56.8018 29.0242C56.5905 27.6521 55.5085 26.5776 54.1269 26.3684L20.1506 21.2227C19.7026 21.1554 19.2543 21.1835 18.8323 21.2965Z" fill="#324264"/>
    <line x1="20.8699" y1="18.5049" x2="25.2559" y2="15.9726" stroke="#324264" stroke-width="3" stroke-linecap="round"/>
    <line x1="16.8824" y1="16.0745" x2="18.1932" y2="11.1826" stroke="#324264" stroke-width="3" stroke-linecap="round"/>
    <line x1="11.4694" y1="17.7124" x2="8.93714" y2="13.3264" stroke="#324264" stroke-width="3" stroke-linecap="round"/>
    <line x1="15.1645" y1="33.4513" x2="15.1645" y2="28.3868" stroke="#324264" stroke-width="3" stroke-linecap="round"/>
    <line x1="7.48483" y1="29.7299" x2="11.066" y2="26.1487" stroke="#324264" stroke-width="3" stroke-linecap="round"/>
    <line x1="4.71346" y1="20.642" x2="9.77797" y2="20.642" stroke="#324264" stroke-width="3" stroke-linecap="round"/>
</g>
</svg>
